<svg width="165" height="38" viewBox="0 0 165 38" fill="none" xmlns="http://www.w3.org/2000/svg">
<g clip-path="url(#clip0_1_95)">
<path d="M0.335815 8.15372C0.459975 7.35602 0.601345 6.56071 0.703377 5.76062C0.761155 5.30445 0.925881 4.93545 1.41269 4.83873C1.92285 4.73842 2.18223 5.068 2.39367 5.46924C4.59289 9.64642 6.80195 13.8188 8.99503 17.9984C9.15607 18.3053 9.34047 18.4151 9.69573 18.4139C15.5079 18.4032 21.32 18.402 27.1322 18.4175C27.4936 18.4175 27.6214 18.2671 27.7554 17.996C29.8219 13.8224 31.9007 9.65478 33.961 5.4788C34.1687 5.05726 34.4232 4.75752 34.9235 4.83992C35.387 4.91754 35.5468 5.24593 35.6082 5.69375C37.076 16.1856 34.1675 25.2457 26.2028 32.6352C24.1683 34.522 21.8277 36.0159 19.3495 37.308C19.0643 37.4572 18.7938 37.6328 18.516 37.7964H17.7784C16.9585 37.3247 16.1336 36.8614 15.3198 36.3789C7.31949 31.6309 2.44284 24.8087 0.818932 15.8358C0.622243 14.7491 0.495625 13.6504 0.335815 12.5578C0.335815 11.0902 0.335815 9.62134 0.335815 8.15372ZM18.1878 35.3686C21.0373 30.2003 23.8389 25.1204 26.6687 19.989H10.0572C12.7751 25.1311 15.4599 30.2099 18.1865 35.3686H18.1878ZM16.1557 34.9232C11.4758 26.0733 6.79704 17.2246 2.11831 8.37583C2.0679 8.39613 2.01627 8.41524 1.96587 8.43554C1.69297 13.7364 2.60511 18.8188 5.06495 23.6014C7.56535 28.4628 11.311 32.2029 16.1557 34.9232ZM20.328 34.9005C25.0817 32.1564 28.7463 28.4365 31.2614 23.6563C34.0421 18.371 34.7711 11.8616 34.2486 8.3615C30.0481 17.5195 25.0719 26.1473 20.328 34.9005Z" fill="#DFF4E7"/>
<path d="M106.704 25.8882C105.945 25.8882 105.335 25.9157 104.731 25.8715C104.548 25.8584 104.344 25.6816 104.21 25.5288C102.964 24.1089 101.716 22.6891 100.503 21.2441C100.151 20.8262 99.7958 20.6315 99.218 20.6447C97.4834 20.6853 95.7477 20.659 93.9455 20.659V25.856H92.2859V11.8521C92.5343 11.8521 92.7519 11.8521 92.9694 11.8521C96.6746 11.8521 100.38 11.8521 104.085 11.8521C105.789 11.8521 106.747 12.756 106.775 14.4147C106.794 15.6447 106.752 16.8747 106.784 18.1047C106.829 19.7884 105.479 20.8035 104.096 20.6685C103.511 20.6112 102.915 20.659 102.17 20.659C103.699 22.4216 105.148 24.0946 106.703 25.8882H106.704ZM99.4774 19.0349C101.032 19.0349 102.586 19.0421 104.141 19.0313C104.836 19.0266 105.09 18.7997 105.098 18.1548C105.114 16.8866 105.116 15.6172 105.098 14.349C105.088 13.7233 104.827 13.4916 104.189 13.4916C101.08 13.4869 97.9715 13.4869 94.8626 13.4916C94.1877 13.4916 93.9504 13.7317 93.9467 14.3932C93.9406 15.6017 93.9431 16.8114 93.9455 18.0211C93.9467 18.8331 94.1447 19.0302 95.0002 19.0349C96.4939 19.0421 97.9862 19.0373 99.4798 19.0361L99.4774 19.0349Z" fill="#DFF4E7"/>
<path d="M71.3809 18.0415H80.6289V19.662H71.3895V24.2654H82.8834V25.8429H69.7422V11.8784H82.8957V13.438H71.3821V18.0415H71.3809Z" fill="#DFF4E7"/>
<path d="M60.3498 24.2737V25.8572C60.1322 25.8691 59.9355 25.8882 59.7388 25.8882C55.9747 25.8894 52.2105 25.8918 48.4464 25.8882C46.8741 25.887 45.903 24.9317 45.9017 23.3936C45.9005 20.3604 45.8993 17.3273 45.9017 14.2941C45.903 12.8062 46.8913 11.8485 48.4329 11.8461C52.2179 11.8425 56.0017 11.8461 59.7867 11.8461C59.949 11.8461 60.1125 11.8461 60.3239 11.8461V13.4618C60.0719 13.4618 59.8334 13.4618 59.5937 13.4618C55.9722 13.4618 52.3519 13.4606 48.7304 13.4618C47.7248 13.4618 47.5527 13.629 47.5515 14.6082C47.549 17.4431 47.549 20.278 47.5515 23.113C47.5515 24.1197 47.7162 24.2725 48.7783 24.2725C52.379 24.2737 55.9796 24.2725 59.5802 24.2725C59.8199 24.2725 60.0596 24.2725 60.3485 24.2725L60.3498 24.2737Z" fill="#DFF4E7"/>
<path d="M164.117 25.8881C163.381 25.8881 162.792 25.9144 162.207 25.8726C162.022 25.8595 161.81 25.7019 161.68 25.5526C160.106 23.7542 158.537 21.951 156.985 20.1347C156.715 19.8194 156.441 19.6713 156.004 19.6809C154.676 19.7107 153.348 19.6916 151.953 19.6916V25.8523H150.284V11.8723H151.903V18.0413C152.943 18.0413 153.926 17.9529 154.885 18.0628C156.14 18.2073 156.954 17.7702 157.705 16.7994C158.918 15.2326 160.297 13.7865 161.577 12.2663C161.856 11.9356 162.137 11.8066 162.562 11.8364C163.023 11.8687 163.489 11.8436 164.095 11.8436C162.037 14.2319 160.065 16.5199 158.047 18.8641C160.034 21.164 162.023 23.4664 164.116 25.8869L164.117 25.8881Z" fill="#DFF4E7"/>
<path d="M123.473 25.869H121.841V13.4796H115.401V11.8926H129.893C129.893 12.2998 129.933 12.7321 129.868 13.1488C129.849 13.2742 129.538 13.4438 129.359 13.4462C127.641 13.4689 125.921 13.4593 124.201 13.4593C123.98 13.4593 123.76 13.4593 123.473 13.4593V25.869Z" fill="#DFF4E7"/>
<path d="M31.0281 4.18796C31.0416 4.80773 30.5327 5.15284 29.9168 4.97372C27.6512 4.31454 25.3881 3.64342 23.1249 2.97469C21.6227 2.53047 20.1266 2.06713 18.6171 1.64679C18.3269 1.56558 17.9692 1.57275 17.6791 1.65753C14.1633 2.68212 10.6536 3.7294 7.14273 4.76952C6.98661 4.81609 6.83295 4.87222 6.67437 4.90804C6.13224 5.03104 5.70444 4.834 5.59872 4.39694C5.47211 3.8727 5.73395 3.55983 6.23182 3.41176C7.38244 3.06903 8.53553 2.73706 9.68616 2.39672C12.3009 1.62171 14.9107 0.832369 17.5328 0.0848244C17.9176 -0.0250385 18.3921 -0.0298151 18.7744 0.0800477C22.5668 1.1739 26.3494 2.30119 30.1344 3.42012C30.5782 3.55147 31.0011 3.70074 31.0281 4.18796Z" fill="#DFF4E7"/>
<path d="M138.625 25.8488V11.8843H140.196V25.8488H138.625Z" fill="#DFF4E7"/>
</g>
<defs>
<clipPath id="clip0_1_95">
<rect width="163.774" height="37.794" fill="white" transform="translate(0.34375)"/>
</clipPath>
</defs>
</svg>
